{"title":"[MARATHI] Kumari Gangubai Metric - Drama x264 MP3 [TMB]","uid":8623979,"size":815004316,"categoryP":"video","categoryS":"movies","magnet":"?xt=urn:btih:1f97c669018d8b8e0d6a44cff3a5145e4d5de8ea&amp;dn=%5BMARATHI%5D+Kumari+Gangubai+Metric+-+Drama+x264+MP3+%5BTMB%5D&amp;tr=udp%3A%2F%2Ftracker.openbittorrent.com%3A80&amp;tr=udp%3A%2F%2Fopen.demonii.com%3A1337&amp;tr=udp%3A%2F%2Ftracker.coppersurfer.tk%3A6969&amp;tr=udp%3A%2F%2Fexodus.desync.com%3A6969","seeders":1,"leechers":0,"uploader":"SJonam","files":1,"time":1372453012,"description":" &lt;a href=&quot;http://i26.photobucket.com/albums/c119/manojb/good.gif&quot; rel=&quot;nofollow&quot; target=&quot;_NEW&quot;&gt;http://i26.photobucket.com/albums/c119/manojb/good.gif&lt;/a&gt; &lt;a href=&quot;\nhttp://desibbrg.org/images/32387306560355699028.png&quot; rel=&quot;nofollow&quot; target=&quot;_NEW&quot;&gt;\nhttp://desibbrg.org/images/32387306560355699028.png&lt;/a&gt; &lt;a href=&quot;\nhttp://desibbrg.org/images/94194722465790370962.png&quot; rel=&quot;nofollow&quot; target=&quot;_NEW&quot;&gt;\nhttp://desibbrg.org/images/94194722465790370962.png&lt;/a&gt; &lt;a href=&quot;\nhttp://desibbrg.org/images/08668249521875743008.png&quot; rel=&quot;nofollow&quot; target=&quot;_NEW&quot;&gt;\nhttp://desibbrg.org/images/08668249521875743008.png&lt;/a&gt; &lt;a href=&quot;\nhttp://desibbrg.org/images/72271651970088005556.png&quot; rel=&quot;nofollow&quot; target=&quot;_NEW&quot;&gt;\nhttp://desibbrg.org/images/72271651970088005556.png&lt;/a&gt; &lt;a href=&quot;\nhttp://desibbrg.org/images/87486609991110791987.png&quot; rel=&quot;nofollow&quot; target=&quot;_NEW&quot;&gt;\nhttp://desibbrg.org/images/87486609991110791987.png&lt;/a&gt; &lt;a href=&quot;\nhttp://desibbrg.org/images/81124803215157394944.png&quot; rel=&quot;nofollow&quot; target=&quot;_NEW&quot;&gt;\nhttp://desibbrg.org/images/81124803215157394944.png&lt;/a&gt;\n\nInformation - \nCast n Crew - \nStarring: Nirmiti Sawant, Paddy Kamble, Poonam Sane, Rajshree Sawant, Atul Todankar, Seema Ghogale, Sushil Inamdar, Rakhee Vichare\nMusic Director/ Writer/ Director: Rajesh Deshpande\nProducer: Dilip Jadhav\n\nMedia Info - \nGeneral\nComplete name                  : Kumari Gangubai Metric - Drama x264 MP3 [TMB].avi\nFormat                         : AVI\nFormat/Info                    : Audio Video Interleave\nFile size                      : 777 MiB\nDuration                       : 2h 18mn\nOverall bit rate               : 786 Kbps\nWriting application            : Lavf54.63.104\n\nVideo\nFormat                         : AVC\nFormat/Info                    : Advanced Video Codec\nFormat profile                 : &lt;a class=&quot;__cf_email__&quot; href=&quot;/cdn-cgi/l/email-protection&quot; data-cfemail=&quot;d39bbab4bb939fe0fde3&quot;&gt;[email&amp;#160;protected]&lt;/a&gt;&lt;script cf-hash='f9e31' type=&quot;text/javascript&quot;&gt;\n/* &lt;![CDATA[ */!function(){try{var t=&quot;currentScript&quot;in document?document.currentScript:function(){for(var t=document.getElementsByTagName(&quot;script&quot;),e=t.length;e--;)if(t[e].getAttribute(&quot;cf-hash&quot;))return t[e]}();if(t&amp;&amp;t.previousSibling){var e,r,n,i,c=t.previousSibling,a=c.getAttribute(&quot;data-cfemail&quot;);if(a){for(e=&quot;&quot;,r=parseInt(a.substr(0,2),16),n=2;a.length-n;n+=2)i=parseInt(a.substr(n,2),16)^r,e+=String.fromCharCode(i);e=document.createTextNode(e),c.parentNode.replaceChild(e,c)}}}catch(u){}}();/* ]]&gt; */&lt;/script&gt;\nFormat settings, CABAC         : Yes\nFormat settings, ReFrames      : 1 frame\nCodec ID                       : H264\nDuration                       : 2h 18mn\nBit rate                       : 518 Kbps\nWidth                          : 856 pixels\nHeight                         : 480 pixels\nDisplay aspect ratio           : 16:9\nFrame rate mode                : Variable\nFrame rate                     : 25.000 fps\nColor space                    : YUV\nChroma subsampling             : 4:2:0\nBit depth                      : 8 bits\nScan type                      : Progressive\nBits/(Pixel*Frame)             : 0.050\nStream size                    : 512 MiB (66%)\nWriting library                : x264 core 129\n\nAudio\nFormat                         : MPEG Audio\nFormat version                 : Version 1\nFormat profile                 : Layer 3\nMode                           : Joint stereo\nCodec ID                       : 55\nCodec ID/Hint                  : MP3\nDuration                       : 2h 18mn\nBit rate mode                  : Constant\nBit rate                       : 256 Kbps\nChannel(s)                     : 2 channels\nSampling rate                  : 44.1 KHz\nCompression mode               : Lossy\nStream size                    : 253 MiB (33%)\nAlignment                      : Aligned on interleaves\nInterleave, duration           : 26 ms (0.65 video frame)\n\nRipper : Manojvb\n\nSeeding will be very slow for first 5 hours ;)\n\n\nEnjoy!\n","torrent":{"xt":"urn:btih:1f97c669018d8b8e0d6a44cff3a5145e4d5de8ea","amp;dn":"%5BMARATHI%5D+Kumari+Gangubai+Metric+-+Drama+x264+MP3+%5BTMB%5D","amp;tr":["udp%3A%2F%2Ftracker.openbittorrent.com%3A80","udp%3A%2F%2Fopen.demonii.com%3A1337","udp%3A%2F%2Ftracker.coppersurfer.tk%3A6969","udp%3A%2F%2Fexodus.desync.com%3A6969"],"infoHash":"1f97c669018d8b8e0d6a44cff3a5145e4d5de8ea","infoHashBuffer":{"type":"Buffer","data":[31,151,198,105,1,141,139,142,13,106,68,207,243,165,20,94,77,93,232,234]},"announce":[],"urlList":[]}}